<mxfile host="Electron" agent="Mozilla/5.0 (X11; Linux x86_64) AppleWebKit/537.36 (KHTML, like Gecko) draw.io/28.1.2 Chrome/138.0.7204.243 Electron/37.4.0 Safari/537.36" version="28.1.2">
  <diagram name="第 1 页" id="A2wYnKDMZFF023bxGnZ8">
    <mxGraphModel dx="2253" dy="822" grid="1" gridSize="10" guides="1" tooltips="1" connect="1" arrows="1" fold="1" page="1" pageScale="1" pageWidth="827" pageHeight="1169" math="0" shadow="0">
      <root>
        <mxCell id="0" />
        <mxCell id="1" parent="0" />
        <mxCell id="qlxX7Fygw9MmZmLqK2NQ-1" value="&lt;span&gt;&lt;b style=&quot;&quot;&gt;&lt;font style=&quot;color: rgb(255, 0, 0);&quot;&gt;PostProcessorRegistrationDelegate&lt;/font&gt;&lt;/b&gt;&lt;/span&gt;" style="shape=umlLifeline;perimeter=lifelinePerimeter;whiteSpace=wrap;html=1;container=1;dropTarget=0;collapsible=0;recursiveResize=0;outlineConnect=0;portConstraint=eastwest;newEdgeStyle={&quot;curved&quot;:0,&quot;rounded&quot;:0};fontSize=20;fillColor=#dae8fc;strokeColor=#6c8ebf;strokeWidth=2;fontStyle=0;fontColor=#FF0000;" parent="1" vertex="1">
          <mxGeometry x="170.51" y="160" width="353" height="1950" as="geometry" />
        </mxCell>
        <mxCell id="tHCy42ypWK_uThyhraDl-2" value="" style="html=1;whiteSpace=wrap;fontSize=20;fillColor=#dae8fc;strokeColor=#6c8ebf;" parent="1" vertex="1">
          <mxGeometry x="-130" y="280" width="970" height="1850" as="geometry" />
        </mxCell>
        <mxCell id="tHCy42ypWK_uThyhraDl-4" value="BeanDefinitionRegistryPostProcessor" style="shape=umlLifeline;perimeter=lifelinePerimeter;whiteSpace=wrap;html=1;container=1;dropTarget=0;collapsible=0;recursiveResize=0;outlineConnect=0;portConstraint=eastwest;newEdgeStyle={&quot;curved&quot;:0,&quot;rounded&quot;:0};fontSize=20;fillColor=#dae8fc;strokeColor=#6c8ebf;strokeWidth=2;" parent="1" vertex="1">
          <mxGeometry x="953.05" y="160" width="418" height="1930" as="geometry" />
        </mxCell>
        <mxCell id="tHCy42ypWK_uThyhraDl-15" value="&lt;b style=&quot;color: rgb(255, 0, 0); font-size: 20px;&quot;&gt;invokeBeanFactoryPostProcessors()&lt;/b&gt;" style="text;html=1;align=center;verticalAlign=middle;whiteSpace=wrap;rounded=0;" parent="1" vertex="1">
          <mxGeometry x="158.51" y="280" width="377" height="50" as="geometry" />
        </mxCell>
        <mxCell id="tHCy42ypWK_uThyhraDl-45" value="postProcessBeanDefinitionRegistry()" style="html=1;whiteSpace=wrap;fontSize=20;fillColor=#dae8fc;strokeColor=#6c8ebf;" parent="1" vertex="1">
          <mxGeometry x="924.1" y="500" width="475.9" height="35" as="geometry" />
        </mxCell>
        <mxCell id="dbyZfYUz2kLOAnTONdro-5" value="&lt;div&gt;进入方法时，AbstractApplicationContext中已存在的BeanFactoryPostProcessor如下（非BeanFactory中存在）：&lt;/div&gt;&lt;div&gt;&lt;span style=&quot;background-color: transparent;&quot;&gt;CachingMetadataReaderFactoryPostProcessor(&lt;/span&gt;&lt;span style=&quot;background-color: transparent;&quot;&gt;BeanDefinitionRegistryPostProcessor&lt;/span&gt;&lt;span style=&quot;background-color: transparent; color: light-dark(rgb(0, 0, 0), rgb(255, 255, 255));&quot;&gt;)&lt;/span&gt;&lt;span style=&quot;background-color: transparent; color: light-dark(rgb(0, 0, 0), rgb(255, 255, 255));&quot;&gt;，&lt;/span&gt;&lt;/div&gt;&lt;div&gt;&lt;span style=&quot;background-color: transparent;&quot;&gt;ConfigurationWarningsPostProcessor&lt;/span&gt;&lt;span style=&quot;background-color: transparent; color: light-dark(rgb(0, 0, 0), rgb(255, 255, 255));&quot;&gt;(&lt;/span&gt;&lt;span style=&quot;background-color: transparent; color: light-dark(rgb(0, 0, 0), rgb(255, 255, 255));&quot;&gt;BeanDefinitionRegistryPostProcessor&lt;/span&gt;&lt;span style=&quot;background-color: transparent; color: light-dark(rgb(0, 0, 0), rgb(255, 255, 255));&quot;&gt;)&lt;/span&gt;&lt;span style=&quot;background-color: transparent; color: light-dark(rgb(0, 0, 0), rgb(255, 255, 255));&quot;&gt;，&lt;/span&gt;&lt;/div&gt;&lt;div&gt;&lt;span style=&quot;background-color: transparent;&quot;&gt;PropertySourceOrderingBeanFactoryPostProcessor(&lt;/span&gt;&lt;span style=&quot;background-color: transparent;&quot;&gt;BeanFactoryPostProcessor&lt;/span&gt;&lt;span style=&quot;background-color: transparent; color: light-dark(rgb(0, 0, 0), rgb(255, 255, 255));&quot;&gt;)&lt;/span&gt;&lt;/div&gt;" style="html=1;whiteSpace=wrap;fontSize=20;fillColor=#dae8fc;strokeColor=#6c8ebf;strokeWidth=1;align=left;verticalAlign=top;" parent="1" vertex="1">
          <mxGeometry x="-97" y="330" width="900" height="130" as="geometry" />
        </mxCell>
        <mxCell id="vSaTzKAQZK1o4J5muWpo-1" value="" style="endArrow=classic;html=1;rounded=0;exitX=1;exitY=0.5;exitDx=0;exitDy=0;entryX=0;entryY=0.5;entryDx=0;entryDy=0;" parent="1" source="vSaTzKAQZK1o4J5muWpo-2" target="tHCy42ypWK_uThyhraDl-45" edge="1">
          <mxGeometry width="50" height="50" relative="1" as="geometry">
            <mxPoint x="940" y="490" as="sourcePoint" />
            <mxPoint x="900" y="420" as="targetPoint" />
          </mxGeometry>
        </mxCell>
        <mxCell id="vSaTzKAQZK1o4J5muWpo-2" value="&lt;div&gt;&lt;span style=&quot;background-color: transparent;&quot;&gt;CachingMetadataReaderFactoryPostProcessor&lt;/span&gt;&lt;span style=&quot;background-color: transparent; color: light-dark(rgb(0, 0, 0), rgb(255, 255, 255));&quot;&gt;，&lt;/span&gt;&lt;/div&gt;&lt;div&gt;&lt;span style=&quot;background-color: transparent;&quot;&gt;ConfigurationWarningsPostProcessor&lt;/span&gt;&lt;span style=&quot;background-color: transparent; color: light-dark(rgb(0, 0, 0), rgb(255, 255, 255));&quot;&gt;，&lt;/span&gt;&lt;/div&gt;" style="html=1;whiteSpace=wrap;fontSize=20;fillColor=#dae8fc;strokeColor=#6c8ebf;strokeWidth=1;align=left;verticalAlign=top;" parent="1" vertex="1">
          <mxGeometry x="-96" y="485" width="900" height="65" as="geometry" />
        </mxCell>
        <mxCell id="vSaTzKAQZK1o4J5muWpo-3" value="DefaultListableBeanFactory" style="shape=umlLifeline;perimeter=lifelinePerimeter;whiteSpace=wrap;html=1;container=1;dropTarget=0;collapsible=0;recursiveResize=0;outlineConnect=0;portConstraint=eastwest;newEdgeStyle={&quot;curved&quot;:0,&quot;rounded&quot;:0};fontSize=20;fillColor=#dae8fc;strokeColor=#6c8ebf;strokeWidth=2;" parent="1" vertex="1">
          <mxGeometry x="1530" y="160" width="418" height="1930" as="geometry" />
        </mxCell>
        <mxCell id="vSaTzKAQZK1o4J5muWpo-5" value="getBean()" style="html=1;whiteSpace=wrap;fontSize=20;fillColor=#dae8fc;strokeColor=#6c8ebf;fontStyle=1;fontColor=#FF0000;" parent="1" vertex="1">
          <mxGeometry x="1501.05" y="650" width="475.9" height="35" as="geometry" />
        </mxCell>
        <mxCell id="vSaTzKAQZK1o4J5muWpo-6" value="" style="endArrow=classic;html=1;rounded=0;exitX=1;exitY=0.5;exitDx=0;exitDy=0;entryX=0;entryY=0.5;entryDx=0;entryDy=0;" parent="1" source="vSaTzKAQZK1o4J5muWpo-4" target="vSaTzKAQZK1o4J5muWpo-5" edge="1">
          <mxGeometry width="50" height="50" relative="1" as="geometry">
            <mxPoint x="1080" y="670" as="sourcePoint" />
            <mxPoint x="1130" y="620" as="targetPoint" />
          </mxGeometry>
        </mxCell>
        <mxCell id="vSaTzKAQZK1o4J5muWpo-7" value="&lt;font style=&quot;color: rgb(255, 0, 0);&quot;&gt;&lt;font color=&quot;#ff0000&quot;&gt;&lt;b style=&quot;color: rgb(255, 0, 0);&quot;&gt;&lt;b style=&quot;color: rgb(255, 0, 0);&quot;&gt;&lt;b style=&quot;color: rgb(255, 0, 0);&quot;&gt;同时实现&lt;b style=&quot;color: rgb(255, 0, 0);&quot;&gt;BeanDefinitionRegistryPostProcessor&lt;/b&gt;，&lt;/b&gt;&lt;b&gt;PriorityOrdered：&lt;/b&gt;&lt;/b&gt;ConfigurationClassPostProcessor&lt;b style=&quot;color: rgb(255, 0, 0);&quot;&gt;(&lt;/b&gt;&lt;b&gt;)&lt;/b&gt;：其bean名称为&lt;/b&gt;&lt;/font&gt;&lt;/font&gt;&lt;b style=&quot;color: rgb(255, 0, 0);&quot;&gt;internalConfigurationAnnotationProcessor&lt;/b&gt;" style="html=1;whiteSpace=wrap;fontSize=20;fillColor=#dae8fc;strokeColor=#6c8ebf;strokeWidth=1;align=left;verticalAlign=top;" parent="1" vertex="1">
          <mxGeometry x="-95" y="580" width="900" height="170" as="geometry" />
        </mxCell>
        <mxCell id="vSaTzKAQZK1o4J5muWpo-8" value="postProcessBeanDefinitionRegistry()" style="html=1;whiteSpace=wrap;fontSize=20;fillColor=#dae8fc;strokeColor=#6c8ebf;" parent="1" vertex="1">
          <mxGeometry x="921" y="690" width="475.9" height="35" as="geometry" />
        </mxCell>
        <mxCell id="vSaTzKAQZK1o4J5muWpo-9" value="" style="endArrow=classic;html=1;rounded=0;exitX=1;exitY=0.75;exitDx=0;exitDy=0;entryX=0;entryY=0.5;entryDx=0;entryDy=0;" parent="1" source="vSaTzKAQZK1o4J5muWpo-7" target="vSaTzKAQZK1o4J5muWpo-8" edge="1">
          <mxGeometry width="50" height="50" relative="1" as="geometry">
            <mxPoint x="890" y="550" as="sourcePoint" />
            <mxPoint x="1034" y="550" as="targetPoint" />
          </mxGeometry>
        </mxCell>
        <mxCell id="vSaTzKAQZK1o4J5muWpo-10" value="&lt;div&gt;现在的BeanDefinitionRegistryPostProcessor（有增加）：&lt;/div&gt;&lt;div&gt;ConfigurationClassPostProcessor&lt;/div&gt;&lt;div&gt;DubboContextPostProcessor&lt;/div&gt;&lt;div&gt;DubboConfigAliasPostProcessor&lt;/div&gt;&lt;div&gt;DubboInfraBeanRegisterPostProcessor&lt;/div&gt;&lt;div&gt;ServiceAnnotationPostProcessor&lt;/div&gt;" style="html=1;whiteSpace=wrap;fontSize=20;fillColor=#dae8fc;strokeColor=#6c8ebf;strokeWidth=1;align=left;verticalAlign=top;" parent="1" vertex="1">
          <mxGeometry x="-97" y="780" width="900" height="170" as="geometry" />
        </mxCell>
        <mxCell id="Xx49c7DH0sLKk94AYla9-1" value="postProcessBeanDefinitionRegistry()" style="html=1;whiteSpace=wrap;fontSize=20;fillColor=#dae8fc;strokeColor=#6c8ebf;" parent="1" vertex="1">
          <mxGeometry x="924.0999999999999" y="1090" width="475.9" height="35" as="geometry" />
        </mxCell>
        <mxCell id="Xx49c7DH0sLKk94AYla9-2" value="" style="endArrow=classic;html=1;rounded=0;entryX=0;entryY=0.5;entryDx=0;entryDy=0;exitX=1;exitY=0.75;exitDx=0;exitDy=0;" parent="1" source="Xx49c7DH0sLKk94AYla9-3" target="Xx49c7DH0sLKk94AYla9-1" edge="1">
          <mxGeometry width="50" height="50" relative="1" as="geometry">
            <mxPoint x="940" y="985" as="sourcePoint" />
            <mxPoint x="900" y="915" as="targetPoint" />
          </mxGeometry>
        </mxCell>
        <mxCell id="Xx49c7DH0sLKk94AYla9-3" value="&lt;div&gt;同时实现BeanDefinitionRegistryPostProcessor，Ordered：无&lt;span style=&quot;color: rgba(0, 0, 0, 0); font-family: monospace; font-size: 0px; text-wrap-mode: nowrap; background-color: transparent;&quot;&gt;%3CmxGraphModel%3E%3Croot%3E%3CmxCell%20id%3D%220%22%2F%3E%3CmxCell%20id%3D%221%22%20parent%3D%220%22%2F%3E%3CmxCell%20id%3D%222%22%20value%3D%22postProcessBeanDefinitionRegistry()%22%20style%3D%22html%3D1%3BwhiteSpace%3Dwrap%3BfontSize%3D20%3BfillColor%3D%23dae8fc%3BstrokeColor%3D%236c8ebf%3B%22%20vertex%3D%221%22%20parent%3D%221%22%3E%3CmxGeometry%20x%3D%22924.1%22%20y%3D%22500%22%20width%3D%22475.9%22%20height%3D%2235%22%20as%3D%22geometry%22%2F%3E%3C%2FmxCell%3E%3CmxCell%20id%3D%223%22%20value%3D%22%22%20style%3D%22endArrow%3Dclassic%3Bhtml%3D1%3Brounded%3D0%3BexitX%3D1%3BexitY%3D0.5%3BexitDx%3D0%3BexitDy%3D0%3BentryX%3D0%3BentryY%3D0.5%3BentryDx%3D0%3BentryDy%3D0%3B%22%20edge%3D%221%22%20source%3D%224%22%20target%3D%222%22%20parent%3D%221%22%3E%3CmxGeometry%20width%3D%2250%22%20height%3D%2250%22%20relative%3D%221%22%20as%3D%22geometry%22%3E%3CmxPoint%20x%3D%22940%22%20y%3D%22490%22%20as%3D%22sourcePoint%22%2F%3E%3CmxPoint%20x%3D%22900%22%20y%3D%22420%22%20as%3D%22targetPoint%22%2F%3E%3C%2FmxGeometry%3E%3C%2FmxCell%3E%3CmxCell%20id%3D%224%22%20value%3D%22%26lt%3Bdiv%26gt%3B%26lt%3Bspan%20style%3D%26quot%3Bbackground-color%3A%20transparent%3B%26quot%3B%26gt%3BCachingMetadataReaderFactoryPostProcessor%26lt%3B%2Fspan%26gt%3B%26lt%3Bspan%20style%3D%26quot%3Bbackground-color%3A%20transparent%3B%20color%3A%20light-dark(rgb(0%2C%200%2C%200)%2C%20rgb(255%2C%20255%2C%20255))%3B%26quot%3B%26gt%3B%EF%BC%8C%26lt%3B%2Fspan%26gt%3B%26lt%3B%2Fdiv%26gt%3B%26lt%3Bdiv%26gt%3B%26lt%3Bspan%20style%3D%26quot%3Bbackground-color%3A%20transparent%3B%26quot%3B%26gt%3BConfigurationWarningsPostProcessor%26lt%3B%2Fspan%26gt%3B%26lt%3Bspan%20style%3D%26quot%3Bbackground-color%3A%20transparent%3B%20color%3A%20light-dark(rgb(0%2C%200%2C%200)%2C%20rgb(255%2C%20255%2C%20255))%3B%26quot%3B%26gt%3B%EF%BC%8C%26lt%3B%2Fspan%26gt%3B%26lt%3B%2Fdiv%26gt%3B%22%20style%3D%22html%3D1%3BwhiteSpace%3Dwrap%3BfontSize%3D20%3BfillColor%3D%23dae8fc%3BstrokeColor%3D%236c8ebf%3BstrokeWidth%3D1%3Balign%3Dleft%3BverticalAlign%3Dtop%3B%22%20vertex%3D%221%22%20parent%3D%221%22%3E%3CmxGeometry%20x%3D%22-96%22%20y%3D%22485%22%20width%3D%22900%22%20height%3D%2265%22%20as%3D%22geometry%22%2F%3E%3C%2FmxCell%3E%3C%2Froot%3E%3C%2FmxGraphModel%3E&lt;/span&gt;&lt;/div&gt;" style="html=1;whiteSpace=wrap;fontSize=20;fillColor=#dae8fc;strokeColor=#6c8ebf;strokeWidth=1;align=left;verticalAlign=top;" parent="1" vertex="1">
          <mxGeometry x="-97" y="980" width="900" height="170" as="geometry" />
        </mxCell>
        <mxCell id="vSaTzKAQZK1o4J5muWpo-4" value="" style="html=1;whiteSpace=wrap;fontSize=20;fillColor=#dae8fc;strokeColor=#6c8ebf;strokeWidth=1;align=left;verticalAlign=top;" parent="1" vertex="1">
          <mxGeometry x="-96" y="645" width="900" height="40" as="geometry" />
        </mxCell>
        <mxCell id="Xx49c7DH0sLKk94AYla9-5" value="getBean()" style="html=1;whiteSpace=wrap;fontSize=20;fillColor=#dae8fc;strokeColor=#6c8ebf;fontStyle=1;fontColor=#FF0000;" parent="1" vertex="1">
          <mxGeometry x="1501.0500000000002" y="1049.5" width="475.9" height="35" as="geometry" />
        </mxCell>
        <mxCell id="Xx49c7DH0sLKk94AYla9-6" value="" style="endArrow=classic;html=1;rounded=0;exitX=1;exitY=0.5;exitDx=0;exitDy=0;entryX=0;entryY=0.5;entryDx=0;entryDy=0;" parent="1" source="Xx49c7DH0sLKk94AYla9-3" target="Xx49c7DH0sLKk94AYla9-5" edge="1">
          <mxGeometry width="50" height="50" relative="1" as="geometry">
            <mxPoint x="1080" y="1050" as="sourcePoint" />
            <mxPoint x="1130" y="1000" as="targetPoint" />
          </mxGeometry>
        </mxCell>
        <mxCell id="Xx49c7DH0sLKk94AYla9-7" value="" style="html=1;whiteSpace=wrap;fontSize=20;fillColor=#dae8fc;strokeColor=#6c8ebf;strokeWidth=1;align=left;verticalAlign=top;" parent="1" vertex="1">
          <mxGeometry x="-97" y="1044.5" width="900" height="40" as="geometry" />
        </mxCell>
        <mxCell id="Xx49c7DH0sLKk94AYla9-8" value="&lt;div&gt;循环迭代执行，直至发现所有的BeanDefinitionRegistryPostProcessor：&lt;/div&gt;&lt;div&gt;&lt;span style=&quot;background-color: transparent; color: light-dark(rgb(0, 0, 0), rgb(255, 255, 255));&quot;&gt;DubboContextPostProcessor&lt;/span&gt;&lt;/div&gt;&lt;div&gt;DubboConfigAliasPostProcessor&lt;/div&gt;&lt;div&gt;DubboInfraBeanRegisterPostProcessor&lt;/div&gt;&lt;div&gt;&lt;b&gt;&lt;font style=&quot;color: rgb(255, 0, 0);&quot;&gt;ServiceAnnotationPostProcessor&lt;span style=&quot;background-color: transparent;&quot;&gt;&lt;font style=&quot;color: rgb(255, 0, 0);&quot;&gt;：注册&lt;/font&gt;&lt;/span&gt;&lt;span style=&quot;background-color: transparent;&quot;&gt;&lt;font&gt;ServiceBean&lt;/font&gt;&lt;/span&gt;&lt;/font&gt;&lt;/b&gt;&lt;/div&gt;" style="html=1;whiteSpace=wrap;fontSize=20;fillColor=#dae8fc;strokeColor=#6c8ebf;strokeWidth=1;align=left;verticalAlign=top;" parent="1" vertex="1">
          <mxGeometry x="-97" y="1185" width="900" height="195" as="geometry" />
        </mxCell>
        <mxCell id="Xx49c7DH0sLKk94AYla9-9" value="getBean()" style="html=1;whiteSpace=wrap;fontSize=20;fillColor=#dae8fc;strokeColor=#6c8ebf;fontStyle=1;fontColor=#FF0000;" parent="1" vertex="1">
          <mxGeometry x="1501.0500000000002" y="1264.5" width="475.9" height="35" as="geometry" />
        </mxCell>
        <mxCell id="Xx49c7DH0sLKk94AYla9-10" value="" style="endArrow=classic;html=1;rounded=0;entryX=0;entryY=0.5;entryDx=0;entryDy=0;exitX=1;exitY=0.5;exitDx=0;exitDy=0;" parent="1" source="Xx49c7DH0sLKk94AYla9-8" target="Xx49c7DH0sLKk94AYla9-9" edge="1">
          <mxGeometry width="50" height="50" relative="1" as="geometry">
            <mxPoint x="900" y="1255" as="sourcePoint" />
            <mxPoint x="1130" y="1222.5" as="targetPoint" />
          </mxGeometry>
        </mxCell>
        <mxCell id="Xx49c7DH0sLKk94AYla9-11" value="postProcessBeanDefinitionRegistry()" style="html=1;whiteSpace=wrap;fontSize=20;fillColor=#dae8fc;strokeColor=#6c8ebf;" parent="1" vertex="1">
          <mxGeometry x="924.0999999999999" y="1315" width="475.9" height="35" as="geometry" />
        </mxCell>
        <mxCell id="Xx49c7DH0sLKk94AYla9-12" value="" style="endArrow=classic;html=1;rounded=0;entryX=0;entryY=0.5;entryDx=0;entryDy=0;exitX=1;exitY=0.75;exitDx=0;exitDy=0;" parent="1" source="Xx49c7DH0sLKk94AYla9-8" target="Xx49c7DH0sLKk94AYla9-11" edge="1">
          <mxGeometry width="50" height="50" relative="1" as="geometry">
            <mxPoint x="840" y="1284" as="sourcePoint" />
            <mxPoint x="936" y="1109" as="targetPoint" />
          </mxGeometry>
        </mxCell>
        <mxCell id="Xx49c7DH0sLKk94AYla9-18" value="&lt;b&gt;&lt;font style=&quot;color: rgb(255, 0, 0);&quot;&gt;BeanFactoryPostProcessor&lt;/font&gt;&lt;/b&gt;" style="shape=umlLifeline;perimeter=lifelinePerimeter;whiteSpace=wrap;html=1;container=1;dropTarget=0;collapsible=0;recursiveResize=0;outlineConnect=0;portConstraint=eastwest;newEdgeStyle={&quot;curved&quot;:0,&quot;rounded&quot;:0};fontSize=20;fillColor=#dae8fc;strokeColor=#6c8ebf;strokeWidth=2;" parent="1" vertex="1">
          <mxGeometry x="2110" y="160" width="418" height="1930" as="geometry" />
        </mxCell>
        <mxCell id="Xx49c7DH0sLKk94AYla9-19" value="&lt;span style=&quot;font-weight: normal;&quot;&gt;&lt;font style=&quot;&quot;&gt;postProcessBeanFactory()&lt;/font&gt;&lt;/span&gt;" style="html=1;whiteSpace=wrap;fontSize=20;fillColor=#dae8fc;strokeColor=#6c8ebf;fontStyle=1;fontColor=default;" parent="1" vertex="1">
          <mxGeometry x="2080" y="1507.5" width="475.9" height="35" as="geometry" />
        </mxCell>
        <mxCell id="Xx49c7DH0sLKk94AYla9-20" value="&lt;div&gt;&lt;span style=&quot;background-color: transparent;&quot;&gt;CachingMetadataReaderFactoryPostProcessor&lt;/span&gt;&lt;span style=&quot;background-color: transparent; color: light-dark(rgb(0, 0, 0), rgb(255, 255, 255));&quot;&gt;，&lt;/span&gt;&lt;/div&gt;&lt;div&gt;&lt;span style=&quot;background-color: transparent; color: light-dark(rgb(0, 0, 0), rgb(255, 255, 255));&quot;&gt;ConfigurationWarningsPostProcessor&lt;/span&gt;&lt;span style=&quot;background-color: transparent; color: light-dark(rgb(0, 0, 0), rgb(255, 255, 255));&quot;&gt;，&lt;/span&gt;&lt;/div&gt;&lt;div&gt;&lt;span style=&quot;background-color: transparent;&quot;&gt;&lt;b style=&quot;&quot;&gt;&lt;font style=&quot;color: light-dark(rgb(255, 0, 0), rgb(255, 255, 255));&quot;&gt;ConfigurationClassPostProcessor：&lt;/font&gt;&lt;/b&gt;&lt;/span&gt;&lt;span style=&quot;background-color: transparent;&quot;&gt;&lt;font color=&quot;#ff0000&quot;&gt;&lt;b&gt;配置类CGLIB增强，&lt;/b&gt;&lt;/font&gt;&lt;/span&gt;&lt;span style=&quot;background-color: transparent; color: light-dark(rgb(0, 0, 0), rgb(255, 255, 255));&quot;&gt;&lt;b&gt;&lt;font style=&quot;color: light-dark(rgb(255, 0, 0), rgb(255, 255, 255));&quot;&gt;添加&lt;/font&gt;&lt;/b&gt;&lt;/span&gt;&lt;span style=&quot;background-color: transparent; color: light-dark(rgb(0, 0, 0), rgb(255, 255, 255));&quot;&gt;&lt;font color=&quot;#ff0000&quot;&gt;&lt;b&gt;ImportAwareBeanPostProcessor&lt;/b&gt;&lt;/font&gt;&lt;/span&gt;&lt;/div&gt;&lt;div&gt;DubboContextPostProcessor&lt;/div&gt;&lt;div&gt;DubboConfigAliasPostProcessor&lt;/div&gt;&lt;div&gt;&lt;b&gt;&lt;font style=&quot;color: rgb(255, 0, 0);&quot;&gt;DubboInfraBeanRegisterPostProcessor：添加&lt;/font&gt;&lt;/b&gt;&lt;span style=&quot;background-color: transparent;&quot;&gt;&lt;font color=&quot;#ff0000&quot;&gt;&lt;b&gt;ReferenceAnnotationBeanPostProcessor&lt;/b&gt;&lt;/font&gt;&lt;/span&gt;&lt;/div&gt;&lt;div&gt;&lt;b&gt;&lt;font style=&quot;color: rgb(255, 0, 0);&quot;&gt;ServiceAnnotationPostProcessor&lt;/font&gt;&lt;/b&gt;&lt;/div&gt;" style="html=1;whiteSpace=wrap;fontSize=20;fillColor=#dae8fc;strokeColor=#6c8ebf;strokeWidth=1;align=left;verticalAlign=top;" parent="1" vertex="1">
          <mxGeometry x="-97" y="1430" width="900" height="190" as="geometry" />
        </mxCell>
        <mxCell id="Xx49c7DH0sLKk94AYla9-22" value="" style="endArrow=classic;html=1;rounded=0;exitX=1;exitY=0.5;exitDx=0;exitDy=0;entryX=0;entryY=0.5;entryDx=0;entryDy=0;" parent="1" source="Xx49c7DH0sLKk94AYla9-20" target="Xx49c7DH0sLKk94AYla9-19" edge="1">
          <mxGeometry width="50" height="50" relative="1" as="geometry">
            <mxPoint x="1130" y="1690" as="sourcePoint" />
            <mxPoint x="1180" y="1640" as="targetPoint" />
          </mxGeometry>
        </mxCell>
        <mxCell id="Xx49c7DH0sLKk94AYla9-23" value="PropertySourceOrderingBeanFactoryPostProcessor" style="html=1;whiteSpace=wrap;fontSize=20;fillColor=#dae8fc;strokeColor=#6c8ebf;strokeWidth=1;align=left;verticalAlign=top;" parent="1" vertex="1">
          <mxGeometry x="-97" y="1670" width="900" height="40" as="geometry" />
        </mxCell>
        <mxCell id="Xx49c7DH0sLKk94AYla9-24" value="&lt;span style=&quot;font-weight: normal;&quot;&gt;&lt;font style=&quot;color: rgb(0, 0, 0);&quot;&gt;postProcessBeanFactory()&lt;/font&gt;&lt;/span&gt;" style="html=1;whiteSpace=wrap;fontSize=20;fillColor=#dae8fc;strokeColor=#6c8ebf;fontStyle=1" parent="1" vertex="1">
          <mxGeometry x="2080" y="1675" width="475.9" height="35" as="geometry" />
        </mxCell>
        <mxCell id="Xx49c7DH0sLKk94AYla9-25" value="" style="endArrow=classic;html=1;rounded=0;exitX=1;exitY=0.5;exitDx=0;exitDy=0;entryX=0;entryY=0.5;entryDx=0;entryDy=0;" parent="1" source="Xx49c7DH0sLKk94AYla9-23" target="Xx49c7DH0sLKk94AYla9-24" edge="1">
          <mxGeometry width="50" height="50" relative="1" as="geometry">
            <mxPoint x="930" y="1720" as="sourcePoint" />
            <mxPoint x="980" y="1670" as="targetPoint" />
          </mxGeometry>
        </mxCell>
        <mxCell id="KDxCXOnwytebShMzRD2V-1" value="同时实现BeanFactoryPostProcessor，PriorityOrdered：&lt;div&gt;PropertySourcesPlaceholderConfigurer&lt;/div&gt;" style="html=1;whiteSpace=wrap;fontSize=20;fillColor=#dae8fc;strokeColor=#6c8ebf;strokeWidth=1;align=left;verticalAlign=top;" parent="1" vertex="1">
          <mxGeometry x="-97" y="1743.5" width="900" height="66" as="geometry" />
        </mxCell>
        <mxCell id="KDxCXOnwytebShMzRD2V-2" value="&lt;span style=&quot;font-weight: normal;&quot;&gt;&lt;font style=&quot;color: rgb(0, 0, 0);&quot;&gt;postProcessBeanFactory()&lt;/font&gt;&lt;/span&gt;" style="html=1;whiteSpace=wrap;fontSize=20;fillColor=#dae8fc;strokeColor=#6c8ebf;fontStyle=1" parent="1" vertex="1">
          <mxGeometry x="2081.05" y="1759" width="475.9" height="35" as="geometry" />
        </mxCell>
        <mxCell id="KDxCXOnwytebShMzRD2V-3" value="" style="endArrow=classic;html=1;rounded=0;exitX=1;exitY=0.5;exitDx=0;exitDy=0;entryX=0;entryY=0.5;entryDx=0;entryDy=0;" parent="1" source="KDxCXOnwytebShMzRD2V-1" target="KDxCXOnwytebShMzRD2V-2" edge="1">
          <mxGeometry width="50" height="50" relative="1" as="geometry">
            <mxPoint x="960" y="1850" as="sourcePoint" />
            <mxPoint x="1010" y="1800" as="targetPoint" />
          </mxGeometry>
        </mxCell>
        <mxCell id="KDxCXOnwytebShMzRD2V-4" value="同时实现BeanFactoryPostProcessor，Ordered：&lt;div&gt;DependsOnDatabaseInitializationPostProcessor&lt;/div&gt;" style="html=1;whiteSpace=wrap;fontSize=20;fillColor=#dae8fc;strokeColor=#6c8ebf;strokeWidth=1;align=left;verticalAlign=top;" parent="1" vertex="1">
          <mxGeometry x="-98" y="1832.5" width="900" height="60" as="geometry" />
        </mxCell>
        <mxCell id="KDxCXOnwytebShMzRD2V-5" value="&lt;span style=&quot;font-weight: normal;&quot;&gt;&lt;font style=&quot;color: rgb(0, 0, 0);&quot;&gt;postProcessBeanFactory()&lt;/font&gt;&lt;/span&gt;" style="html=1;whiteSpace=wrap;fontSize=20;fillColor=#dae8fc;strokeColor=#6c8ebf;fontStyle=1" parent="1" vertex="1">
          <mxGeometry x="2080" y="1845" width="475.9" height="35" as="geometry" />
        </mxCell>
        <mxCell id="KDxCXOnwytebShMzRD2V-6" value="" style="endArrow=classic;html=1;rounded=0;exitX=1;exitY=0.5;exitDx=0;exitDy=0;entryX=0;entryY=0.5;entryDx=0;entryDy=0;" parent="1" source="KDxCXOnwytebShMzRD2V-4" target="KDxCXOnwytebShMzRD2V-5" edge="1">
          <mxGeometry width="50" height="50" relative="1" as="geometry">
            <mxPoint x="958.95" y="1936" as="sourcePoint" />
            <mxPoint x="1008.95" y="1886" as="targetPoint" />
          </mxGeometry>
        </mxCell>
        <mxCell id="KDxCXOnwytebShMzRD2V-7" value="&lt;div&gt;实现BeanFactoryPostProcessor，未实现：&lt;span style=&quot;background-color: transparent; color: light-dark(rgb(0, 0, 0), rgb(255, 255, 255));&quot;&gt;PriorityOrdered，&lt;/span&gt;&lt;span style=&quot;background-color: transparent; color: light-dark(rgb(0, 0, 0), rgb(255, 255, 255));&quot;&gt;Ordered：&lt;/span&gt;&lt;/div&gt;&lt;div&gt;&lt;span style=&quot;background-color: transparent; color: light-dark(rgb(0, 0, 0), rgb(255, 255, 255));&quot;&gt;EventListenerMethodProcessor&lt;/span&gt;&lt;/div&gt;&lt;div&gt;ReferenceAnnotationBeanPostProcessor(dubbo)&lt;/div&gt;&lt;div&gt;forceAutoProxyCreatorToUseClassProxying(springboot，AopAutoConfiguration中定义)&lt;/div&gt;&lt;div&gt;bootstrapExecutorAliasPostProcessor&lt;span style=&quot;background-color: transparent; color: light-dark(rgb(0, 0, 0), rgb(255, 255, 255));&quot;&gt;(springboot，&lt;/span&gt;&lt;span style=&quot;background-color: transparent;&quot;&gt;TaskExecutorConfigurations中定义&lt;/span&gt;&lt;span style=&quot;background-color: transparent; color: light-dark(rgb(0, 0, 0), rgb(255, 255, 255));&quot;&gt;)&lt;/span&gt;&lt;/div&gt;" style="html=1;whiteSpace=wrap;fontSize=20;fillColor=#dae8fc;strokeColor=#6c8ebf;strokeWidth=1;align=left;verticalAlign=top;" parent="1" vertex="1">
          <mxGeometry x="-100" y="1910" width="900" height="150" as="geometry" />
        </mxCell>
        <mxCell id="KDxCXOnwytebShMzRD2V-8" value="&lt;span style=&quot;font-weight: normal;&quot;&gt;&lt;font style=&quot;color: rgb(0, 0, 0);&quot;&gt;postProcessBeanFactory()&lt;/font&gt;&lt;/span&gt;" style="html=1;whiteSpace=wrap;fontSize=20;fillColor=#dae8fc;strokeColor=#6c8ebf;fontStyle=1" parent="1" vertex="1">
          <mxGeometry x="2090" y="1967.5" width="475.9" height="35" as="geometry" />
        </mxCell>
        <mxCell id="KDxCXOnwytebShMzRD2V-9" value="" style="endArrow=classic;html=1;rounded=0;exitX=1;exitY=0.5;exitDx=0;exitDy=0;entryX=0;entryY=0.5;entryDx=0;entryDy=0;" parent="1" source="KDxCXOnwytebShMzRD2V-7" target="KDxCXOnwytebShMzRD2V-8" edge="1">
          <mxGeometry width="50" height="50" relative="1" as="geometry">
            <mxPoint x="957" y="2006" as="sourcePoint" />
            <mxPoint x="1007" y="1956" as="targetPoint" />
          </mxGeometry>
        </mxCell>
      </root>
    </mxGraphModel>
  </diagram>
</mxfile>
